<?xml version="1.0" encoding="UTF-8" standalone="no" ?>
<!DOCTYPE svg PUBLIC "-//W3C//DTD SVG 1.1//EN" "http://www.w3.org/Graphics/SVG/1.1/DTD/svg11.dtd">
<svg xmlns="http://www.w3.org/2000/svg" xmlns:xlink="http://www.w3.org/1999/xlink" version="1.1" width="250" height="250" viewBox="0 0 250 250" xml:space="preserve">
<desc>Created with Fabric.js 5.3.0</desc>
<defs>
</defs>
<g transform="matrix(-3.1447696354 -0.3305286076 -0.3381212348 3.2170086574 136.4855412655 138.6804037363)" id="OUWvXHt8M7LnAFDMRS-Ba"  >
<path style="stroke: rgb(125,140,229); stroke-width: 0; stroke-dasharray: none; stroke-linecap: butt; stroke-dashoffset: 0; stroke-linejoin: miter; stroke-miterlimit: 4; fill: rgb(180,242,247); fill-rule: nonzero; opacity: 1;" vector-effect="non-scaling-stroke"  transform=" translate(0, 0)" d="M 0 -31.0559 C 17.14286 -31.0559 31.0559 -17.14286 31.0559 0 C 31.0559 17.14286 17.14286 31.0559 0 31.0559 C -17.14286 31.0559 -31.0559 17.14286 -31.0559 0 C -31.0559 -17.14286 -17.14286 -31.0559 0 -31.0559 z" stroke-linecap="round" />
</g>
<g transform="matrix(-2.2452687723 -0.2359872573 -0.2414081595 2.2968452116 80.3054757711 74.4156128008)" id="gjs23WjF6SjQWWi4Oze4r"  >
<path style="stroke: rgb(106,131,108); stroke-width: 0; stroke-dasharray: none; stroke-linecap: butt; stroke-dashoffset: 0; stroke-linejoin: miter; stroke-miterlimit: 4; fill: rgb(180,242,247); fill-rule: nonzero; opacity: 1;" vector-effect="non-scaling-stroke"  transform=" translate(0, 0)" d="M 0 -31.0559 C 17.14286 -31.0559 31.0559 -17.14286 31.0559 0 C 31.0559 17.14286 17.14286 31.0559 0 31.0559 C -17.14286 31.0559 -31.0559 17.14286 -31.0559 0 C -31.0559 -17.14286 -17.14286 -31.0559 0 -31.0559 z" stroke-linecap="round" />
</g>
<g transform="matrix(-1.3577036172 -0.1427004004 -0.1459783948 1.388891651 168.1076393785 121.2832699292)" id="OGRjvIrLZBJymTeY-6wnt"  >
<path style="stroke: rgb(72,222,126); stroke-width: 0; stroke-dasharray: none; stroke-linecap: butt; stroke-dashoffset: 0; stroke-linejoin: miter; stroke-miterlimit: 4; fill: rgb(236,252,253); fill-rule: nonzero; opacity: 1;" vector-effect="non-scaling-stroke"  transform=" translate(0, 0)" d="M 0 -31.0559 C 17.14286 -31.0559 31.0559 -17.14286 31.0559 0 C 31.0559 17.14286 17.14286 31.0559 0 31.0559 C -17.14286 31.0559 -31.0559 17.14286 -31.0559 0 C -31.0559 -17.14286 -17.14286 -31.0559 0 -31.0559 z" stroke-linecap="round" />
</g>
<g transform="matrix(-1.1712946639 -0.1231080299 -0.1259359648 1.1982006668 129.3304650766 84.6213444761)" id="dOJtnbzq5hK0SONGSYyAf"  >
<path style="stroke: rgb(72,222,126); stroke-width: 0; stroke-dasharray: none; stroke-linecap: butt; stroke-dashoffset: 0; stroke-linejoin: miter; stroke-miterlimit: 4; fill: rgb(236,252,253); fill-rule: nonzero; opacity: 1;" vector-effect="non-scaling-stroke"  transform=" translate(0, 0)" d="M 0 -31.0559 C 17.14286 -31.0559 31.0559 -17.14286 31.0559 0 C 31.0559 17.14286 17.14286 31.0559 0 31.0559 C -17.14286 31.0559 -31.0559 17.14286 -31.0559 0 C -31.0559 -17.14286 -17.14286 -31.0559 0 -31.0559 z" stroke-linecap="round" />
</g>
</svg>