<?xml version="1.0" encoding="UTF-8" standalone="no" ?>
<!DOCTYPE svg PUBLIC "-//W3C//DTD SVG 1.1//EN" "http://www.w3.org/Graphics/SVG/1.1/DTD/svg11.dtd">
<svg xmlns="http://www.w3.org/2000/svg" xmlns:xlink="http://www.w3.org/1999/xlink" version="1.1" width="250" height="250" viewBox="0 0 250 250" xml:space="preserve">
<desc>Created with Fabric.js 5.3.0</desc>
<defs>
</defs>
<g transform="matrix(3.3036344973 0 0 3.3036344973 105.3923756913 138.0721840457)" id="OUWvXHt8M7LnAFDMRS-Ba"  >
<path style="stroke: rgb(125,140,229); stroke-width: 0; stroke-dasharray: none; stroke-linecap: butt; stroke-dashoffset: 0; stroke-linejoin: miter; stroke-miterlimit: 4; fill: rgb(180,242,247); fill-rule: nonzero; opacity: 1;" vector-effect="non-scaling-stroke"  transform=" translate(0, 0)" d="M 0 -31.0559 C 17.14286 -31.0559 31.0559 -17.14286 31.0559 0 C 31.0559 17.14286 17.14286 31.0559 0 31.0559 C -17.14286 31.0559 -31.0559 17.14286 -31.0559 0 C -31.0559 -17.14286 -17.14286 -31.0559 0 -31.0559 z" stroke-linecap="round" />
</g>
<g transform="matrix(2.3586933962 0 0 2.3586933962 170.4641529667 78.7954928868)" id="gjs23WjF6SjQWWi4Oze4r"  >
<path style="stroke: rgb(106,131,108); stroke-width: 0; stroke-dasharray: none; stroke-linecap: butt; stroke-dashoffset: 0; stroke-linejoin: miter; stroke-miterlimit: 4; fill: rgb(180,242,247); fill-rule: nonzero; opacity: 1;" vector-effect="non-scaling-stroke"  transform=" translate(0, 0)" d="M 0 -31.0559 C 17.14286 -31.0559 31.0559 -17.14286 31.0559 0 C 31.0559 17.14286 17.14286 31.0559 0 31.0559 C -17.14286 31.0559 -31.0559 17.14286 -31.0559 0 C -31.0559 -17.14286 -17.14286 -31.0559 0 -31.0559 z" stroke-linecap="round" />
</g>
<g transform="matrix(2.7833907465 0 0 2.7833907465 105.3923756913 138.0721840457)" id="OGRjvIrLZBJymTeY-6wnt"  >
<path style="stroke: rgb(72,222,126); stroke-width: 0; stroke-dasharray: none; stroke-linecap: butt; stroke-dashoffset: 0; stroke-linejoin: miter; stroke-miterlimit: 4; fill: rgb(236,252,253); fill-rule: nonzero; opacity: 1;" vector-effect="non-scaling-stroke"  transform=" translate(0, 0)" d="M 0 -31.0559 C 17.14286 -31.0559 31.0559 -17.14286 31.0559 0 C 31.0559 17.14286 17.14286 31.0559 0 31.0559 C -17.14286 31.0559 -31.0559 17.14286 -31.0559 0 C -31.0559 -17.14286 -17.14286 -31.0559 0 -31.0559 z" stroke-linecap="round" />
</g>
<g transform="matrix(2.011510609 0 0 2.011510609 170.4641529667 78.7954928868)" id="dOJtnbzq5hK0SONGSYyAf"  >
<path style="stroke: rgb(72,222,126); stroke-width: 0; stroke-dasharray: none; stroke-linecap: butt; stroke-dashoffset: 0; stroke-linejoin: miter; stroke-miterlimit: 4; fill: rgb(236,252,253); fill-rule: nonzero; opacity: 1;" vector-effect="non-scaling-stroke"  transform=" translate(0, 0)" d="M 0 -31.0559 C 17.14286 -31.0559 31.0559 -17.14286 31.0559 0 C 31.0559 17.14286 17.14286 31.0559 0 31.0559 C -17.14286 31.0559 -31.0559 17.14286 -31.0559 0 C -31.0559 -17.14286 -17.14286 -31.0559 0 -31.0559 z" stroke-linecap="round" />
</g>
</svg>