<?xml version="1.0" encoding="UTF-8" standalone="no" ?>
<!DOCTYPE svg PUBLIC "-//W3C//DTD SVG 1.1//EN" "http://www.w3.org/Graphics/SVG/1.1/DTD/svg11.dtd">
<svg xmlns="http://www.w3.org/2000/svg" xmlns:xlink="http://www.w3.org/1999/xlink" version="1.1" width="250" height="250" viewBox="0 0 250 250" xml:space="preserve">
<desc>Created with Fabric.js 5.3.0</desc>
<defs>
</defs>
<g transform="matrix(-3.1447696354 -0.3305286076 -0.3381212348 3.2170086574 136.4855412655 138.6804037363)" id="OUWvXHt8M7LnAFDMRS-Ba"  >
<path style="stroke: rgb(125,140,229); stroke-width: 0; stroke-dasharray: none; stroke-linecap: butt; stroke-dashoffset: 0; stroke-linejoin: miter; stroke-miterlimit: 4; fill: rgb(180,242,247); fill-rule: nonzero; opacity: 1;" vector-effect="non-scaling-stroke"  transform=" translate(0, 0)" d="M 0 -31.0559 C 17.14286 -31.0559 31.0559 -17.14286 31.0559 0 C 31.0559 17.14286 17.14286 31.0559 0 31.0559 C -17.14286 31.0559 -31.0559 17.14286 -31.0559 0 C -31.0559 -17.14286 -17.14286 -31.0559 0 -31.0559 z" stroke-linecap="round" />
</g>
<g transform="matrix(-2.2452687723 -0.2359872573 -0.2414081595 2.2968452116 79.3463964873 73.7183003399)" id="gjs23WjF6SjQWWi4Oze4r"  >
<path style="stroke: rgb(106,131,108); stroke-width: 0; stroke-dasharray: none; stroke-linecap: butt; stroke-dashoffset: 0; stroke-linejoin: miter; stroke-miterlimit: 4; fill: rgb(180,242,247); fill-rule: nonzero; opacity: 1;" vector-effect="non-scaling-stroke"  transform=" translate(0, 0)" d="M 0 -31.0559 C 17.14286 -31.0559 31.0559 -17.14286 31.0559 0 C 31.0559 17.14286 17.14286 31.0559 0 31.0559 C -17.14286 31.0559 -31.0559 17.14286 -31.0559 0 C -31.0559 -17.14286 -17.14286 -31.0559 0 -31.0559 z" stroke-linecap="round" />
</g>
<g transform="matrix(-1.3577036172 -0.1427004004 -0.1459783948 1.388891651 182.2961434497 125)" id="OGRjvIrLZBJymTeY-6wnt"  >
<path style="stroke: rgb(72,222,126); stroke-width: 0; stroke-dasharray: none; stroke-linecap: butt; stroke-dashoffset: 0; stroke-linejoin: miter; stroke-miterlimit: 4; fill: rgb(236,252,253); fill-rule: nonzero; opacity: 1;" vector-effect="non-scaling-stroke"  transform=" translate(0, 0)" d="M -26.87976 -14.4408 C -16.49115 -35.60237 17.9434 -51.37125999999999 26.169589999999996 -51.37125999999999 C 43.31245 -51.37125999999999 13.234129999999995 -36.22359999999999 13.234129999999995 -19.080749999999995 C 13.234129999999995 -1.937889999999996 29.391609999999993 32.32811 12.248749999999996 32.32811 C -4.894110000000003 32.32811 -25.051170000000006 63.34889 -25.051170000000006 46.20603 C -25.051170000000006 37.28936 -38.140370000000004 8.49702 -26.879770000000008 -14.440800000000003 z" stroke-linecap="round" />
</g>
<g transform="matrix(-1.1712946638 -0.1231080299 -0.1259359648 1.1982006668 79.9343056726 31.5445887492)" id="dOJtnbzq5hK0SONGSYyAf"  >
<path style="stroke: rgb(72,222,126); stroke-width: 0; stroke-dasharray: none; stroke-linecap: butt; stroke-dashoffset: 0; stroke-linejoin: miter; stroke-miterlimit: 4; fill: rgb(236,252,253); fill-rule: nonzero; opacity: 1;" vector-effect="non-scaling-stroke"  transform=" translate(0, 0)" d="M -6.96489 -19.05237 C 10.177969999999998 -19.05237 42.48512 -2.4490100000000012 42.48512 14.693850000000001 C 42.48512 31.83671 15.172790000000003 -7.121469999999999 -1.9700599999999966 -7.121469999999999 C -19.112919999999995 -7.121469999999999 -42.485119999999995 24.974190000000004 -42.485119999999995 7.831330000000001 C -42.485119999999995 -9.311529999999998 -24.107749999999996 -19.05238 -6.964889999999997 -19.05238 z" stroke-linecap="round" />
</g>
</svg>