<?xml version="1.0" encoding="UTF-8" standalone="no" ?>
<!DOCTYPE svg PUBLIC "-//W3C//DTD SVG 1.1//EN" "http://www.w3.org/Graphics/SVG/1.1/DTD/svg11.dtd">
<svg xmlns="http://www.w3.org/2000/svg" xmlns:xlink="http://www.w3.org/1999/xlink" version="1.1" width="250" height="250" viewBox="0 0 250 250" xml:space="preserve">
<desc>Created with Fabric.js 5.3.0</desc>
<defs>
</defs>
<g transform="matrix(-1.1175616293 -0.1174604604 -0.120158664 1.1432333218 199.4566984473 209.3806945798)" id="OUWvXHt8M7LnAFDMRS-Ba"  >
<path style="stroke: rgb(125,140,229); stroke-width: 0; stroke-dasharray: none; stroke-linecap: butt; stroke-dashoffset: 0; stroke-linejoin: miter; stroke-miterlimit: 4; fill: rgb(180,242,247); fill-rule: nonzero; opacity: 1;" vector-effect="non-scaling-stroke"  transform=" translate(0, 0)" d="M 0 -31.0559 C 17.14286 -31.0559 31.0559 -17.14286 31.0559 0 C 31.0559 17.14286 17.14286 31.0559 0 31.0559 C -17.14286 31.0559 -31.0559 17.14286 -31.0559 0 C -31.0559 -17.14286 -17.14286 -31.0559 0 -31.0559 z" stroke-linecap="round" />
</g>
<g transform="matrix(-1.1517116586 -0.1210497731 -0.1238304274 1.1781678171 170.0359264371 175.4942853894)" id="gjs23WjF6SjQWWi4Oze4r"  >
<path style="stroke: rgb(106,131,108); stroke-width: 0; stroke-dasharray: none; stroke-linecap: butt; stroke-dashoffset: 0; stroke-linejoin: miter; stroke-miterlimit: 4; fill: rgb(180,242,247); fill-rule: nonzero; opacity: 1;" vector-effect="non-scaling-stroke"  transform=" translate(0, 0)" d="M 0 -31.0559 C 17.14286 -31.0559 31.0559 -17.14286 31.0559 0 C 31.0559 17.14286 17.14286 31.0559 0 31.0559 C -17.14286 31.0559 -31.0559 17.14286 -31.0559 0 C -31.0559 -17.14286 -17.14286 -31.0559 0 -31.0559 z" stroke-linecap="round" />
</g>
<g transform="matrix(-1.1175616293 -0.1174604604 -0.120158664 1.1432333219 130.2675463986 140.7992111755)" id="Y0UrvoyKruZoutCgSv_gJ"  >
<path style="stroke: rgb(125,140,229); stroke-width: 0; stroke-dasharray: none; stroke-linecap: butt; stroke-dashoffset: 0; stroke-linejoin: miter; stroke-miterlimit: 4; fill: rgb(180,242,247); fill-rule: nonzero; opacity: 1;" vector-effect="non-scaling-stroke"  transform=" translate(0, 0)" d="M 0 -31.0559 C 17.14286 -31.0559 31.0559 -17.14286 31.0559 0 C 31.0559 17.14286 17.14286 31.0559 0 31.0559 C -17.14286 31.0559 -31.0559 17.14286 -31.0559 0 C -31.0559 -17.14286 -17.14286 -31.0559 0 -31.0559 z" stroke-linecap="round" />
</g>
<g transform="matrix(-1.1517116587 -0.1210497731 -0.1238304274 1.1781678171 100.8467743885 106.9128019851)" id="1M1SV4UCfNOfaZAeajv-Q"  >
<path style="stroke: rgb(106,131,108); stroke-width: 0; stroke-dasharray: none; stroke-linecap: butt; stroke-dashoffset: 0; stroke-linejoin: miter; stroke-miterlimit: 4; fill: rgb(180,242,247); fill-rule: nonzero; opacity: 1;" vector-effect="non-scaling-stroke"  transform=" translate(0, 0)" d="M 0 -31.0559 C 17.14286 -31.0559 31.0559 -17.14286 31.0559 0 C 31.0559 17.14286 17.14286 31.0559 0 31.0559 C -17.14286 31.0559 -31.0559 17.14286 -31.0559 0 C -31.0559 -17.14286 -17.14286 -31.0559 0 -31.0559 z" stroke-linecap="round" />
</g>
<g transform="matrix(-1.1175616293 -0.1174604604 -0.120158664 1.1432333219 82.6506312952 77.0790769521)" id="oaDgaLfSIwWfXgC02c5gY"  >
<path style="stroke: rgb(125,140,229); stroke-width: 0; stroke-dasharray: none; stroke-linecap: butt; stroke-dashoffset: 0; stroke-linejoin: miter; stroke-miterlimit: 4; fill: rgb(180,242,247); fill-rule: nonzero; opacity: 1;" vector-effect="non-scaling-stroke"  transform=" translate(0, 0)" d="M 0 -31.0559 C 17.14286 -31.0559 31.0559 -17.14286 31.0559 0 C 31.0559 17.14286 17.14286 31.0559 0 31.0559 C -17.14286 31.0559 -31.0559 17.14286 -31.0559 0 C -31.0559 -17.14286 -17.14286 -31.0559 0 -31.0559 z" stroke-linecap="round" />
</g>
<g transform="matrix(-1.1517116587 -0.1210497731 -0.1238304274 1.1781678171 53.2298592851 43.1926677618)" id="jSeDWt1CvLFtAetOf19PB"  >
<path style="stroke: rgb(106,131,108); stroke-width: 0; stroke-dasharray: none; stroke-linecap: butt; stroke-dashoffset: 0; stroke-linejoin: miter; stroke-miterlimit: 4; fill: rgb(180,242,247); fill-rule: nonzero; opacity: 1;" vector-effect="non-scaling-stroke"  transform=" translate(0, 0)" d="M 0 -31.0559 C 17.14286 -31.0559 31.0559 -17.14286 31.0559 0 C 31.0559 17.14286 17.14286 31.0559 0 31.0559 C -17.14286 31.0559 -31.0559 17.14286 -31.0559 0 C -31.0559 -17.14286 -17.14286 -31.0559 0 -31.0559 z" stroke-linecap="round" />
</g>
</svg>