<?xml version="1.0" standalone="no"?>
<!DOCTYPE svg PUBLIC "-//W3C//DTD SVG 20010904//EN"
 "http://www.w3.org/TR/2001/REC-SVG-20010904/DTD/svg10.dtd">
<svg version="1.0" xmlns="http://www.w3.org/2000/svg"
 width="934.000000pt" height="534.000000pt" viewBox="0 0 934.000000 534.000000"
 preserveAspectRatio="xMidYMid meet">

<g transform="translate(0.000000,534.000000) scale(0.1000,-0.1000)"
fill="#C1E32B" stroke="white">
<path d="M4535 5303 c-115 -45 -259 -111 -339 -155 -442 -246 -831 -661 -1082
-1156 l-63 -123 -95 -49 c-207 -106 -431 -252 -636 -414 -149 -118 -454 -421
-566 -561 -268 -337 -481 -750 -588 -1142 -58 -212 -62 -186 43 -285 426 -406
1091 -696 1792 -782 307 -38 768 -41 1009 -6 36 5 72 10 80 10 8 0 42 -35 75
-77 110 -143 528 -543 566 -543 37 0 200 546 227 757 l7 58 155 56 c234 84
396 154 590 250 421 211 741 438 1043 742 l159 158 148 -56 c339 -126 675
-190 945 -179 151 6 209 16 213 35 7 39 -224 324 -488 600 l-160 167 51 108
c199 420 377 1015 443 1479 21 150 27 200 34 304 12 188 8 570 -6 623 -5 21
-37 24 -45 6 -16 -42 -385 -555 -563 -785 -260 -335 -549 -653 -713 -785 -128
-103 -100 -101 -269 -20 -408 196 -878 344 -1346 422 -209 35 -225 37 -306 45
-36 4 -75 8 -87 10 -12 2 -73 7 -136 11 l-115 7 -6 50 c-9 64 -6 449 4 542 4
39 11 98 14 132 9 91 16 139 32 228 30 178 44 251 52 280 17 57 0 66 -73 38z"/>
</g>
</svg>
