<?xml version="1.0" encoding="UTF-8" standalone="no" ?>
<!DOCTYPE svg PUBLIC "-//W3C//DTD SVG 1.1//EN" "http://www.w3.org/Graphics/SVG/1.1/DTD/svg11.dtd">
<svg xmlns="http://www.w3.org/2000/svg" xmlns:xlink="http://www.w3.org/1999/xlink" version="1.1" width="250" height="250" viewBox="0 0 250 250" xml:space="preserve">
<desc>Created with Fabric.js 5.3.0</desc>
<defs>
</defs>
<g transform="matrix(0.0309948336 0 0 -0.0309948336 125 125)" id="8jbUy19iCk4JHg8tFLQi2"  >
<path style="stroke: rgb(255,255,255); stroke-width: 3; stroke-dasharray: none; stroke-linecap: butt; stroke-dashoffset: 0; stroke-linejoin: miter; stroke-miterlimit: 4; fill: none; fill-rule: nonzero; opacity: 1;" vector-effect="non-scaling-stroke"  transform=" translate(-4671.8215596243, -2669.1706314013)" d="M 4535 5303 C 4420 5258 4276 5192 4196 5148 C 3754 4902 3365 4487 3114 3992 L 3051 3869 L 2956 3820 C 2749 3714 2525 3568 2320 3406 C 2171 3288 1866 2985 1754 2845 C 1486 2508 1273 2095 1166 1703 C 1108 1491 1104 1517 1209 1418 C 1635 1012 2300 722 3001 636 C 3308 598 3769 595 4010 630 C 4046 635 4082 640 4090 640 C 4098 640 4132 605 4165 563 C 4275 420 4693 20 4731 20 C 4768 20 4931 566 4958 777 L 4965 835 L 5120 891 C 5354 975 5516 1045 5710 1141 C 6131 1352 6451 1579 6753 1883 L 6912 2041 L 7060 1985 C 7399 1859 7735 1795 8005 1806 C 8156 1812 8214 1822 8218 1841 C 8225 1880 7994 2165 7730 2441 L 7570 2608 L 7621 2716 C 7820 3136 7998 3731 8064 4195 C 8085 4345 8091 4395 8098 4499 C 8110 4687 8106 5069 8092 5122 C 8087 5143 8055 5146 8047 5128 C 8031 5086 7662 4573 7484 4343 C 7224 4008 6935 3690 6771 3558 C 6643 3455 6671 3457 6502 3538 C 6094 3734 5624 3882 5156 3960 C 4947 3995 4931 3997 4850 4005 C 4814 4009 4775 4013 4763 4015 C 4751 4017 4690 4022 4627 4026 L 4512 4033 L 4506 4083 C 4497 4147 4500 4532 4510 4625 C 4514 4664 4521 4723 4524 4757 C 4533 4848 4540 4896 4556 4985 C 4586 5163 4600 5236 4608 5265 C 4625 5322 4608 5331 4535 5303 z" stroke-linecap="round" />
</g>
</svg>