<?xml version="1.0" encoding="UTF-8" standalone="no" ?>
<!DOCTYPE svg PUBLIC "-//W3C//DTD SVG 1.1//EN" "http://www.w3.org/Graphics/SVG/1.1/DTD/svg11.dtd">
<svg xmlns="http://www.w3.org/2000/svg" xmlns:xlink="http://www.w3.org/1999/xlink" version="1.1" width="500" height="500" viewBox="0 0 500 500" xml:space="preserve">
<desc>Created with Fabric.js 5.3.0</desc>
<defs>
</defs>
<g transform="matrix(0.0070495273 0 0 -0.007049527 250 238.8975270288)" id="ZfWQmSeqjnc0b3TBo8u2X"  >
<path style="stroke: rgb(255,255,255); stroke-width: 1.4; stroke-dasharray: none; stroke-linecap: butt; stroke-dashoffset: 0; stroke-linejoin: miter; stroke-miterlimit: 4; fill: rgb(138,138,138); fill-opacity: 0; fill-rule: nonzero; opacity: 1;" vector-effect="non-scaling-stroke"  transform=" translate(0, 0)" d="M -136.82156 2633.82937 C -251.82156 2588.82937 -395.82156 2522.82937 -475.82156 2478.82937 C -917.82156 2232.82937 -1306.8215599999999 1817.82937 -1557.8215599999999 1322.82937 L -1620.8215599999999 1199.82937 L -1715.8215599999999 1150.82937 C -1922.8215599999999 1044.82937 -2146.82156 898.8293699999999 -2351.82156 736.8293699999999 C -2500.82156 618.8293699999999 -2805.82156 315.8293699999999 -2917.82156 175.82936999999993 C -3185.82156 -161.17063000000007 -3398.82156 -574.1706300000001 -3505.82156 -966.1706300000001 C -3563.82156 -1178.17063 -3567.82156 -1152.17063 -3462.82156 -1251.17063 C -3036.82156 -1657.17063 -2371.82156 -1947.17063 -1670.8215599999999 -2033.17063 C -1363.8215599999999 -2071.17063 -902.8215599999999 -2074.17063 -661.8215599999999 -2039.17063 C -625.8215599999999 -2034.17063 -589.8215599999999 -2029.17063 -581.8215599999999 -2029.17063 C -573.8215599999999 -2029.17063 -539.8215599999999 -2064.17063 -506.82155999999986 -2106.17063 C -396.82155999999986 -2249.17063 21.178440000000137 -2649.17063 59.17844000000014 -2649.17063 C 96.17844000000014 -2649.17063 259.17844000000014 -2103.17063 286.17844000000014 -1892.17063 L 293.17844000000014 -1834.17063 L 448.17844000000014 -1778.17063 C 682.1784400000001 -1694.17063 844.1784400000001 -1624.17063 1038.1784400000001 -1528.17063 C 1459.1784400000001 -1317.17063 1779.1784400000001 -1090.17063 2081.17844 -786.1706300000001 L 2240.17844 -628.1706300000001 L 2388.17844 -684.1706300000001 C 2727.17844 -810.1706300000001 3063.17844 -874.1706300000001 3333.17844 -863.1706300000001 C 3484.17844 -857.1706300000001 3542.17844 -847.1706300000001 3546.17844 -828.1706300000001 C 3553.17844 -789.1706300000001 3322.17844 -504.1706300000001 3058.17844 -228.17063000000007 L 2898.17844 -61.170630000000074 L 2949.17844 46.829369999999926 C 3148.17844 466.8293699999999 3326.17844 1061.82937 3392.17844 1525.82937 C 3413.17844 1675.82937 3419.17844 1725.82937 3426.17844 1829.82937 C 3438.17844 2017.82937 3434.17844 2399.82937 3420.17844 2452.82937 C 3415.17844 2473.82937 3383.17844 2476.82937 3375.17844 2458.82937 C 3359.17844 2416.82937 2990.17844 1903.82937 2812.17844 1673.82937 C 2552.17844 1338.82937 2263.17844 1020.8293699999999 2099.17844 888.8293699999999 C 1971.1784400000001 785.8293699999999 1999.1784400000001 787.8293699999999 1830.1784400000001 868.8293699999999 C 1422.1784400000001 1064.82937 952.1784400000001 1212.82937 484.17844000000014 1290.82937 C 275.17844000000014 1325.82937 259.17844000000014 1327.82937 178.17844000000014 1335.82937 C 142.17844000000014 1339.82937 103.17844000000014 1343.82937 91.17844000000014 1345.82937 C 79.17844000000014 1347.82937 18.178440000000137 1352.82937 -44.82155999999986 1356.82937 L -159.82155999999986 1363.82937 L -165.82155999999986 1413.82937 C -174.82155999999986 1477.82937 -171.82155999999986 1862.82937 -161.82155999999986 1955.82937 C -157.82155999999986 1994.82937 -150.82155999999986 2053.82937 -147.82155999999986 2087.82937 C -138.82155999999986 2178.82937 -131.82155999999986 2226.82937 -115.82155999999986 2315.82937 C -85.82155999999986 2493.82937 -71.82155999999986 2566.82937 -63.82155999999986 2595.82937 C -46.82155999999986 2652.82937 -63.82155999999986 2661.82937 -136.82155999999986 2633.82937 z" stroke-linecap="round" />
</g>
</svg>