<svg xmlns="http://www.w3.org/2000/svg" viewBox="0 0 1440 320" preserveAspectRatio="none"> 
    <path d="m0,254.55l8,8.18c8,8.18 24,24.54 40,32.73c16,8.18 32,8.18 48,0c16,-8.18 32,-24.54 48,-40.91c16,-16.36 32,-32.73 48,-35.44c16,-2.91 32,8.33 48,10.89c16,2.56 32,-2.56 48,10.89c16,13.65 32,46.38 48,62.74c16,16.36 32,16.36 48,13.65c16,-2.91 32,-8.03 48,-8.18c16,0.15 32,5.27 48,-2.76c16,-8.33 32,-29.81 48,-35.44c16,-5.62 32,5.62 48,-5.47c16,-10.89 32,-43.62 48,-57.27c16,-13.45 32,-8.33 48,-10.89c16,-2.56 32,-13.81 48,-21.83c16,-8.33 32,-13.45 48,8.18c16,21.83 32,70.92 48,92.76c16,21.63 32,16.52 48,10.89c16,-5.62 32,-10.74 48,-16.36c16,-5.62 32,-10.74 48,-13.65c16,-2.71 32,-2.71 48,-10.89c16,-8.18 32,-24.54 48,-27.25c16,-2.91 32,8.33 48,5.42c16,-2.71 32,-19.07 48,-5.42c16,13.45 32,57.42 48,79.05c16,21.83 32,21.83 48,5.47c16,-16.36 32,-49.09 48,-68.16c16,-19.28 32,-24.39 48,-10.94c16,13.65 32,46.38 48,62.74c16,16.36 32,16.36 40,16.36l8,0l0,16.36l-8,0c-8,0 -24,0 -40,0c-16,0 -32,0 -48,0c-16,0 -32,0 -48,0c-16,0 -32,0 -48,0c-16,0 -32,0 -48,0c-16,0 -32,0 -48,0c-16,0 -32,0 -48,0c-16,0 -32,0 -48,0c-16,0 -32,0 -48,0c-16,0 -32,0 -48,0c-16,0 -32,0 -48,0c-16,0 -32,0 -48,0c-16,0 -32,0 -48,0c-16,0 -32,0 -48,0c-16,0 -32,0 -48,0c-16,0 -32,0 -48,0c-16,0 -32,0 -48,0c-16,0 -32,0 -48,0c-16,0 -32,0 -48,0c-16,0 -32,0 -48,0c-16,0 -32,0 -48,0c-16,0 -32,0 -48,0c-16,0 -32,0 -48,0c-16,0 -32,0 -48,0c-16,0 -32,0 -48,0c-16,0 -32,0 -48,0c-16,0 -32,0 -48,0c-16,0 -32,0 -48,0c-16,0 -32,0 -48,0c-16,0 -32,0 -40,0l-8,0l0,-65.45z" fill="#16BAC5" id="svg_1"/>
</svg>