<svg xmlns="http://www.w3.org/2000/svg" viewBox="0 0 1440 320" preserveAspectRatio="none"> 
    <path fill="#16BAC5" fill-opacity="1" d="M0,32L24,64C48,96,96,160,144,165.3C192,171,240,117,288,106.7C336,96,384,128,432,122.7C480,117,528,75,576,96C624,117,672,203,720,208C768,213,816,139,864,106.7C912,75,960,85,1008,96C1056,107,1104,117,1152,117.3C1200,117,1248,107,1296,112C1344,117,1392,139,1416,149.3L1440,160L1440,320L1416,320C1392,320,1344,320,1296,320C1248,320,1200,320,1152,320C1104,320,1056,320,1008,320C960,320,912,320,864,320C816,320,768,320,720,320C672,320,624,320,576,320C528,320,480,320,432,320C384,320,336,320,288,320C240,320,192,320,144,320C96,320,48,320,24,320L0,320Z"></path>
</svg>